# xmcd
#
# Track frame offsets:
#	150
#	15750
#	31235
#	48900
#	60992
#	86495
#	104615
#	127752
#	143980
#	166737
#	194255
#
# Disc length: 2897 seconds
#
# Revision: 2
# Processed by: cddbd v1.5.1PL0 Copyright (c) Steve Scherf et al.
# Submitted via: MusicWizard 7.1.1b
#
DISCID=7c0b4f0b
DTITLE=Norman Nardini - Breakdown in Paradise
DYEAR=1900
DGENRE=Rock
TTITLE0=Looks are Deceiving
TTITLE1=Up Jumps the Devil
TTITLE2=Breakdown in Paradise
TTITLE3=Red Hot Lover
TTITLE4=Three Times your Fool
TTITLE5=Walk Out that Door
TTITLE6=Little Things
TTITLE7=I Never Cared
TTITLE8=Call Me on the Telephone
TTITLE9=When I Die and Go to Hell
TTITLE10=How the Hell do you Get to Heaven
EXTD=
EXTT0=
EXTT1=
EXTT2=
EXTT3=
EXTT4=
EXTT5=
EXTT6=
EXTT7=
EXTT8=
EXTT9=
EXTT10=
PLAYORDER=
